<?xml version="1.0" standalone="no"?>
<!DOCTYPE svg PUBLIC "-//W3C//DTD SVG 20010904//EN"
 "http://www.w3.org/TR/2001/REC-SVG-20010904/DTD/svg10.dtd">
<svg version="1.0" xmlns="http://www.w3.org/2000/svg"
 width="260.000000pt" height="260.000000pt" viewBox="0 0 260.000000 260.000000"
 preserveAspectRatio="xMidYMid meet">
<metadata>
Created by potrace 1.14, written by Peter Selinger 2001-2017
</metadata>
<g transform="translate(0.000000,260.000000) scale(0.100000,-0.100000)"
fill="#000000" stroke="none">
<path d="M0 1300 l0 -1300 1300 0 1300 0 0 1300 0 1300 -1300 0 -1300 0 0
-1300z m1070 485 c0 -217 4 -395 8 -395 4 0 144 79 311 175 167 96 305 174
306 173 49 -77 65 -112 53 -119 -7 -5 -144 -84 -305 -176 -161 -93 -292 -171
-293 -174 0 -3 134 -83 298 -178 163 -94 304 -175 312 -181 13 -8 11 -17 -15
-65 -16 -30 -32 -55 -36 -55 -3 0 -146 81 -318 180 -171 99 -313 180 -316 180
-3 0 -5 -162 -5 -360 l0 -360 -65 0 -65 0 -2 360 -3 359 -330 -191 c-181 -105
-338 -192 -348 -192 -11 -1 -28 18 -47 50 l-29 52 344 198 c260 150 341 202
332 210 -7 6 -156 93 -332 194 -176 101 -322 185 -324 186 -9 7 63 115 74 110
7 -2 158 -88 335 -190 176 -102 323 -186 326 -186 2 0 4 178 4 395 l0 395 65
0 65 0 0 -395z m1181 383 c22 -6 57 -27 79 -46 111 -94 113 -255 7 -349 -123
-108 -310 -66 -372 84 -19 44 -19 133 -2 176 47 111 173 170 288 135z"/>
</g>
</svg>
