<svg width="166" height="134" viewBox="0 0 166 134" fill="none" xmlns="http://www.w3.org/2000/svg">
<g clip-path="url(#clip0_4_57)">
<path d="M26.2105 132.334C27.5423 132.996 31.2729 132.471 31.0607 131.679C31.0097 131.489 31.2292 131.295 31.5546 131.241C32.8535 130.893 33.6772 130.673 33.2795 130.202C32.8817 129.731 33.1861 129.854 33.8497 130.049C34.5134 130.245 35.0984 130.02 35.9362 129.219C36.6021 128.588 37.4104 128.126 38.2924 127.874C38.5887 127.86 38.8738 127.757 39.1107 127.578C39.3475 127.4 39.5251 127.154 39.6202 126.873C39.5098 126.461 40.0693 126.142 40.7454 126.13C41.5509 126.001 42.3034 125.646 42.9162 125.107C43.3115 124.648 43.8501 124.337 44.4447 124.222C44.6348 124.171 44.7932 124.129 44.7084 123.812C44.6235 123.495 44.9782 123.298 45.4874 123.298C47.286 123 48.9667 122.209 50.3419 121.012C50.291 120.822 51.0723 120.443 52.0776 120.14C52.8303 120.006 53.5271 119.654 54.0814 119.127C54.2006 118.922 54.3591 118.742 54.5478 118.599C54.7366 118.455 54.9518 118.35 55.1812 118.289C56.2178 117.847 57.2103 117.308 58.1456 116.68C58.9907 116.098 59.8944 115.605 60.8419 115.21C61.1022 115.117 61.3253 114.942 61.4777 114.712C61.6302 114.481 61.7038 114.207 61.6876 113.931C61.674 113.12 61.8069 112.982 62.2024 113.318C62.5979 113.653 63.162 113.604 63.9664 113.185C66.7347 111.779 69.4058 110.19 71.9619 108.428C72.1666 108.172 72.464 108.007 72.7895 107.968C73.6176 107.687 74.4033 107.293 75.1249 106.799L79.339 104.278C80.2827 103.818 81.1263 103.177 81.8214 102.39C81.7705 102.2 82.0703 102.052 82.4867 102.212C82.9031 102.372 83.6656 100.402 82.9775 99.2282C82.5922 98.5504 82.2182 98.5487 80.7484 99.1463C77.3029 100.586 74.0002 102.347 70.8838 104.404C70.4197 104.699 69.9316 104.955 69.4247 105.169C66.2023 106.575 65.5478 106.921 65.5314 107.366C65.5356 107.426 65.525 107.486 65.5004 107.54C65.4758 107.595 65.4381 107.642 65.3905 107.679C65.343 107.715 65.2872 107.739 65.2282 107.748C65.1691 107.758 65.1086 107.752 65.0522 107.732C60.0973 109.964 55.2707 112.47 50.5949 115.24C47.8715 116.988 49.4227 115.554 54.2647 111.574C60.956 106.385 77.8613 91.1592 77.7339 90.684C77.6066 90.2087 77.877 90.2042 78.1938 90.1193C81.0106 87.759 83.6206 85.1625 85.9955 82.3581C86.4062 81.2294 87.5343 81.1309 88.5539 82.148C89.4811 82.9615 90.6189 83.4971 91.8366 83.6934C93.0544 83.8896 94.3029 83.7385 95.4387 83.2574C103.855 80.8324 117.151 66.7094 127.141 49.4993C133.494 39.5269 137.933 28.4573 140.229 16.8579C142.036 7.00165 141.738 1.58058 139.218 0.795525C138.17 0.431263 137.75 0.50994 137.091 1.09386C136.433 1.67778 136.44 2.08343 136.941 3.0695C138.486 6.42488 135.604 21.0172 130.78 32.6665C123.053 51.4775 105.683 74.0947 95.2918 78.7806C92.9626 79.8461 91.49 79.7993 90.7764 78.5304C90.0629 77.2614 89.9939 77.8911 95.751 70.6099C108.052 55.0556 114.981 39.8542 113.037 32.599C112.7 31.4762 111.936 30.531 110.908 29.9676C109.88 29.4043 108.672 29.2681 107.544 29.5886C102 31.0741 94.3801 42.5557 89.4745 56.9434C87.4948 62.0568 86.2926 67.438 85.9082 72.9077C86.001 73.9617 85.8498 75.0229 85.4663 76.009C85.0827 76.995 84.4771 77.8795 83.6965 78.5938C71.9193 90.9413 59.2495 102.406 45.7897 112.894C45.4729 112.979 45.2194 113.047 45.0836 112.54C44.9478 112.033 45.1124 111.887 45.3998 111.946C45.6872 112.004 45.8434 111.827 45.8434 111.827C46.3068 110.464 46.9255 109.159 47.6874 107.937C49.4769 104.914 50.8919 101.684 51.9015 98.3188C51.8421 98.0971 52.1204 97.615 52.5424 97.1624C53.0592 96.4425 53.4294 95.6279 53.6318 94.7651C53.8664 93.7582 54.2073 92.779 54.6488 91.8441C55.1862 90.6458 55.6023 89.3967 55.8909 88.1156C56.0811 87.1985 56.3262 86.2937 56.625 85.4061C56.922 84.7449 57.1349 84.049 57.2585 83.3348C57.4172 82.6163 57.6507 81.9164 57.9553 81.2466C58.2042 80.9082 60.0163 73.2239 61.4069 66.5015C62.0685 63.2681 62.0595 62.7272 61.3703 62.4365C60.851 62.2206 60.3958 61.8749 60.0486 61.4324C59.0222 60.0096 57.979 60.4249 56.9823 62.6615C55.2435 66.1835 54.5868 68.2949 55.2521 68.1167C55.9175 67.9384 55.2521 68.1167 55.1469 68.4844C53.5311 72.5346 52.4653 76.7831 51.9781 81.1164C52.3442 81.5955 52.1563 81.7817 51.6851 81.6703C51.2138 81.5589 50.9564 81.8655 51.0667 82.2774C51.103 82.5269 51.0894 82.7811 51.0266 83.0253C50.9638 83.2695 50.853 83.4987 50.7008 83.6997C50.5516 83.889 50.4639 84.1194 50.4494 84.36C50.435 84.6006 50.4945 84.8399 50.62 85.0457C50.7304 85.4575 50.7728 85.616 50.7219 85.4259C50.671 85.2358 49.1651 87.4729 49.3349 88.1065C49.3265 88.4236 49.2475 88.7348 49.1036 89.0174C48.9265 89.3705 47.9514 91.9408 46.9321 94.7267C45.9129 97.5126 44.9524 100.011 44.7754 100.364C44.5983 100.717 43.7973 102.29 43.0682 103.878L41.3147 107.471C41.0827 107.873 41.0494 108.256 41.2502 108.372C41.4511 108.488 41.3267 108.657 41.0098 108.742C39.0177 110.795 37.4523 113.222 36.404 115.884C36.5059 116.264 36.5484 116.423 36.2061 116.413C34.9728 117.393 33.9116 118.573 33.0664 119.902C31.7291 121.755 29.3453 124.771 28.0034 126.353C24.6675 129.997 24.2846 131.356 26.2105 132.334ZM78.6181 102.094C78.7756 102.11 78.9266 102.166 79.0574 102.255C79.1881 102.345 79.2944 102.466 79.3666 102.607C79.5364 103.24 79.1539 103.207 78.665 102.523C78.1762 101.839 78.2905 102.012 78.6181 102.094ZM90.6522 68.3088C92.5685 55.9446 101.608 37.5968 107.579 34.0275C108.839 33.2823 108.911 33.297 109.191 34.3425C110.04 37.5107 107.105 45.5639 102.142 54.1605C98.7711 59.9531 94.9165 65.4502 90.619 70.5928C90.4267 70.5085 90.4255 69.4901 90.5232 68.2075L90.6522 68.3088Z" fill="#FAF8EB"/>
</g>
<defs>
<clipPath id="clip0_4_57">
<rect width="145.104" height="99.382" fill="white" transform="translate(165.882 95.9956) rotate(165)"/>
</clipPath>
</defs>
</svg>
