<svg width="50" height="38" viewBox="0 0 50 38" fill="none" xmlns="http://www.w3.org/2000/svg">
<path d="M17.8018 33.5387C17.8018 34.4204 18.0612 35.2822 18.5473 36.0153C19.0333 36.7484 19.7242 37.3197 20.5325 37.6571C21.3408 37.9945 22.2302 38.0828 23.0883 37.9108C23.9463 37.7388 24.7345 37.3142 25.3532 36.6908C25.9718 36.0674 26.3931 35.2731 26.5638 34.4084C26.7345 33.5437 26.6469 32.6474 26.3121 31.8329C25.9773 31.0183 25.4103 30.3221 24.6828 29.8323C23.9554 29.3425 23.1002 29.0811 22.2253 29.0811C21.0521 29.0811 19.9269 29.5507 19.0974 30.3867C18.2678 31.2227 17.8018 32.3565 17.8018 33.5387Z" fill="#E4E4D4"/>
<path d="M37.7324 33.5387C37.7324 34.4204 37.9919 35.2822 38.4779 36.0153C38.964 36.7484 39.6548 37.3197 40.4631 37.6571C41.2714 37.9945 42.1608 38.0828 43.0189 37.9108C43.877 37.7388 44.6652 37.3142 45.2838 36.6908C45.9025 36.0674 46.3238 35.2731 46.4944 34.4084C46.6651 33.5437 46.5775 32.6474 46.2427 31.8329C45.9079 31.0183 45.341 30.3221 44.6135 29.8323C43.8861 29.3425 43.0308 29.0811 42.1559 29.0811C40.9827 29.0811 39.8576 29.5507 39.028 30.3867C38.1985 31.2227 37.7324 32.3565 37.7324 33.5387Z" fill="#E4E4D4"/>
<path d="M22.676 17.479H43.5023L50.0001 0.637329H16.3037L22.676 17.479Z" fill="#E4E4D4"/>
<path d="M44.5304 25.6426H18.7557C18.316 25.6426 17.8865 25.5095 17.5228 25.2605C17.1591 25.0115 16.8781 24.6581 16.7161 24.2462L8.92832 4.42155H2.19382C1.61198 4.42155 1.05398 4.18863 0.642555 3.77403C0.231134 3.35943 0 2.79711 0 2.21077C0 1.62444 0.231134 1.06212 0.642555 0.647521C1.05398 0.23292 1.61198 0 2.19382 0H10.4204C10.86 0.000314368 11.2893 0.133563 11.653 0.382504C12.0166 0.631446 12.2977 0.984624 12.4599 1.39634L20.2465 21.2222H44.5304C44.8227 21.2153 45.1135 21.2674 45.3855 21.3754C45.6576 21.4834 45.9055 21.6451 46.1147 21.851C46.3238 22.0569 46.49 22.3029 46.6035 22.5745C46.717 22.846 46.7754 23.1377 46.7754 23.4324C46.7754 23.7271 46.717 24.0188 46.6035 24.2903C46.49 24.5619 46.3238 24.8079 46.1147 25.0138C45.9055 25.2197 45.6576 25.3814 45.3855 25.4894C45.1135 25.5974 44.8227 25.6494 44.5304 25.6426Z" fill="#E4E4D4"/>
</svg>
