<svg width="35" height="45" viewBox="0 0 35 45" fill="none" xmlns="http://www.w3.org/2000/svg">
<g clip-path="url(#clip0_14_475)">
<path fill-rule="evenodd" clip-rule="evenodd" d="M14.6388 29.3556C14.6388 29.4828 14.5622 29.5972 14.5366 29.699C12.876 36.173 12.6844 37.6229 10.9855 40.6246C10.1669 42.0477 9.24917 43.412 8.23917 44.7075C8.1242 44.8474 8.02201 45.0382 7.79209 45C7.56216 44.9618 7.52384 44.7202 7.48552 44.5167C7.20081 42.5543 7.08117 40.5718 7.12785 38.5896C7.21727 36.0458 7.53661 35.1173 10.8961 21.0882C10.9229 20.8898 10.8965 20.688 10.8195 20.5031C9.99106 18.4255 9.89647 16.1292 10.5512 13.991C12.0713 9.20859 17.5129 8.83974 18.4709 12.7954C19.0585 15.2374 17.5001 18.4299 16.3122 23.1487C15.3286 27.0534 19.9399 29.8135 23.8742 26.9644C27.5019 24.3443 28.9198 18.061 28.6516 13.5967C28.1151 4.69333 18.3304 2.78547 12.1224 5.64725C5.00742 8.90333 3.38515 17.6668 6.60413 21.686C7.01289 22.1947 7.31946 22.5127 7.19172 23.0215C6.98734 23.8355 6.79574 24.6368 6.57858 25.4381C6.55014 25.5709 6.49068 25.6952 6.40502 25.8009C6.31936 25.9066 6.2099 25.9907 6.08551 26.0465C5.96112 26.1022 5.8253 26.128 5.68904 26.1217C5.55278 26.1155 5.41992 26.0774 5.30121 26.0105C4.13741 25.5349 3.11664 24.7682 2.33771 23.7846C-0.395868 20.4268 -1.17507 13.7747 2.42712 8.14019C6.38698 1.89513 13.8724 -0.635957 20.6552 0.127187C28.7665 1.05568 33.8888 6.56303 34.8468 12.8462C35.2811 15.708 34.9746 22.7289 30.9508 27.7021C26.3268 33.4129 18.8286 33.7945 15.3797 30.2459C15.1169 29.9625 14.8696 29.6653 14.6388 29.3556Z" fill="#FAF8EB"/>
</g>
<defs>
<clipPath id="clip0_14_475">
<rect width="35" height="45" fill="white"/>
</clipPath>
</defs>
</svg>
