<svg width="189" height="118" viewBox="0 0 189 118" fill="none" xmlns="http://www.w3.org/2000/svg">
<g clip-path="url(#clip0_5_284)">
<path d="M9.70683 55.7891C8.17408 55.8004 6.64236 55.7144 5.12085 55.5316C3.83828 55.3955 2.54095 55.5283 1.3112 55.9215C0.62081 56.2255 0.516689 56.5243 0.712507 57.6398C0.908325 58.7552 1.54512 59.5635 6.11052 59.5206C8.20618 59.4968 10.0767 59.5203 10.2758 59.5478L11.7834 59.6542C12.3108 59.658 12.8365 59.7149 13.3524 59.8239C13.5758 59.9017 14.0912 59.6206 14.5098 59.1381C14.9284 58.6557 15.1554 58.4834 14.9862 58.969C14.817 59.4546 14.6738 59.8655 17.2943 59.7733C18.023 59.7329 18.7517 59.8442 19.4347 60.1002C19.7271 60.579 22.61 60.4526 22.8294 59.9426C23.0489 59.4327 23.2054 59.8223 23.4251 60.1502C23.8712 60.5281 24.4415 60.7268 25.0259 60.7079C25.6943 60.6584 26.3661 60.7089 27.0192 60.858C27.6247 61.0225 28.2643 61.0131 28.8655 60.8311C29.4666 60.6635 29.8537 60.6309 29.8016 60.7803C29.7496 60.9297 30.2111 60.923 30.7323 61.1046C31.2194 61.0462 31.713 61.117 32.1636 61.3101C32.5339 61.4589 32.9457 61.4685 33.3231 61.3371C33.7459 61.2087 34.1964 61.2057 34.6203 61.3283C36.6605 61.6779 38.7339 61.7962 40.8014 61.6809C42.4597 61.7141 44.9146 61.8574 46.2844 61.9997C47.3686 62.1595 48.4713 62.148 49.5526 61.9656C49.9546 61.7705 50.3659 61.7882 50.5614 62.0657C50.7569 62.3433 51.2315 62.2992 51.7563 62.2308C52.1663 62.0559 52.6191 62.0093 53.0554 62.097C53.5021 62.2526 54.0233 62.4342 56.2827 62.3C56.8514 62.257 57.4227 62.3279 57.9634 62.5086C58.1016 62.5913 58.2618 62.6295 58.4225 62.6181C58.5832 62.6067 58.7367 62.5462 58.8623 62.4448C59.3789 62.2848 59.9317 62.2874 60.4461 62.4522C61.287 62.6699 62.1558 62.7609 63.024 62.722C63.7107 62.6681 66.8151 62.7445 69.8191 62.8697C72.823 62.9948 76.4393 63.0401 77.837 62.9826C78.9104 62.911 79.988 62.9497 81.0531 63.0979C83.9429 63.29 86.8426 63.2929 89.7335 63.1066C90.048 63.0446 90.3725 63.0572 90.6809 63.1435C91.1747 63.2309 91.6819 63.2074 92.1661 63.0746C92.3896 63.0541 92.6148 63.0817 92.8267 63.1556C93.0385 63.2294 93.2321 63.3477 93.3946 63.5026C93.7669 63.6323 93.9158 63.6842 93.9472 63.2344C94.0194 62.9697 94.1625 62.7296 94.3609 62.5403C94.5593 62.351 94.8056 62.2197 95.0729 62.1606C96.3755 61.7767 96.3701 62.1518 94.9297 62.5715C93.4893 62.9911 94.6043 63.5053 96.1918 63.2626C96.8171 63.1453 97.3643 63.2522 97.424 63.4406C97.4836 63.6289 98.0941 63.674 98.6709 63.4562C100.865 62.6708 101.477 62.591 101.42 63.1154C101.362 63.6399 104.506 63.6043 104.827 62.9205C104.865 62.8411 104.918 62.7704 104.985 62.7128C105.051 62.6553 105.128 62.6121 105.212 62.5861C105.296 62.5601 105.384 62.5518 105.471 62.5618C105.558 62.5718 105.641 62.5998 105.717 62.6441C106.089 62.7738 106.147 63.0871 105.883 63.2464C105.619 63.4056 106.011 63.8357 107.5 63.5167C108.116 63.3275 108.772 63.3097 109.397 63.4655C109.732 63.5822 109.959 63.41 110.015 63.0105C110.07 62.611 110.236 62.3755 110.409 62.4777C110.582 62.5799 110.69 62.8689 110.66 63.1937C110.631 63.5184 111.189 63.713 112.488 63.5792C113.285 63.4764 114.094 63.5034 114.882 63.6592C115.488 63.7563 116.107 63.7301 116.704 63.582C117.286 63.437 117.899 63.4887 118.448 63.7289C118.745 63.8327 119.006 63.9235 119.173 63.5629C119.195 63.4846 119.237 63.4136 119.296 63.3581C119.355 63.3026 119.429 63.2648 119.508 63.2489C119.587 63.233 119.67 63.2396 119.745 63.2681C119.821 63.2965 119.887 63.3457 119.936 63.4099C120.022 63.5521 120.154 63.6597 120.311 63.7142C120.467 63.7687 120.638 63.7666 120.793 63.7083C120.997 63.6299 121.216 63.5985 121.434 63.6164C121.652 63.6343 121.862 63.701 122.051 63.8116C122.498 63.9672 122.795 64.071 122.801 63.6959C122.806 63.3208 123.009 63.0983 123.608 63.0557C124.208 63.0132 124.371 62.9027 123.878 63.3593C123.385 63.8158 123.67 63.9569 125.405 63.8911C126.42 63.9421 127.438 63.8752 128.438 63.6915C128.989 63.5483 129.475 63.5919 129.548 63.7429C129.62 63.8939 129.808 63.8337 129.937 63.5852C130.065 63.3367 130.08 63.1743 130.312 63.4649C130.545 63.7554 130.759 63.6205 131.02 63.7113C131.969 63.6745 132.919 63.7115 133.862 63.8219C135.481 63.9673 136.106 63.8501 136.164 63.3256C136.221 62.8011 136.359 62.7653 136.536 63.4553C136.713 64.1453 138.292 64.5277 138.472 64.1298C138.652 63.7319 138.924 63.9104 139.246 64.0645C144.057 64.3157 148.877 64.3177 153.689 64.0703C153.689 64.0703 155.585 64.019 157.567 64.0814C159.258 64.1512 160.951 64.0972 162.633 63.9197C163.567 63.7804 164.514 63.7586 165.453 63.855C166.263 63.9277 166.949 63.8737 167.015 63.687C167.08 63.5002 168.265 63.4525 169.857 63.7976C170.571 63.8497 171.289 63.804 171.991 63.6618C172.655 63.5065 173.343 63.4896 174.012 63.6121C174.357 63.766 174.744 63.7973 175.109 63.7008C177.037 63.3475 178.986 63.1171 180.943 63.0111C186.432 62.9548 187.638 62.3697 187.464 59.7539C187.29 57.1381 185.233 57.0498 171.165 57.8865C169.492 57.9239 167.825 58.0996 166.181 58.4119C166.103 58.636 165.654 58.6053 165.494 58.4658C165.334 58.3262 160.906 58.3333 160.949 58.809C160.992 59.2847 160.832 59.1452 160.726 58.7312C155.33 58.2367 149.9 58.2231 144.5 58.6905C142.899 58.8429 141.288 58.8562 139.685 58.7302C138.096 58.6187 136.5 58.6657 134.919 58.8706C134.366 59.0435 133.769 59.0139 133.237 58.787C132.79 58.6314 132.418 58.5017 132.263 58.8249C132.109 59.1481 131.872 59.1076 131.55 58.9535C130.582 58.6162 128.411 58.7391 128.565 59.2537C128.72 59.7684 128.487 59.4778 128.342 59.1759C126.314 58.6401 124.177 58.6782 122.167 59.2861C121.852 59.4698 121.478 59.4651 121.344 59.2508C121.21 59.0365 120.45 58.9395 119.663 59.0422C118.716 59.1658 117.757 59.1832 116.806 59.0939C116.062 58.8345 115.334 59.1255 115.267 59.4373C115.2 59.7491 114.964 59.7086 114.718 59.4554C114.549 59.3208 114.349 59.2306 114.136 59.193C113.923 59.1554 113.704 59.1716 113.499 59.2401C112.697 59.5052 112.299 59.4501 110.609 59.0288C109.837 58.9281 109.053 58.9521 108.288 59.0998C107.45 59.2268 106.752 59.1931 106.693 59.0048C106.633 58.8164 105.911 58.7324 105.074 58.8594C102.675 59.1545 102.26 59.3869 102.346 60.3384C102.432 61.2899 102.046 61.1975 101.631 59.7542L101.373 58.5755L100.017 59.2338C99.1628 59.6483 98.4761 59.7022 98.1446 59.3354C97.8132 58.9686 97.5118 59.1149 97.4745 59.1019C97.4373 59.0889 97.0354 59.284 96.8417 58.8814C96.7772 58.8088 96.6985 58.7504 96.6106 58.7096C96.5226 58.6687 96.4272 58.6464 96.3302 58.6441C96.2333 58.6417 96.1368 58.6592 96.0468 58.6957C95.9568 58.7321 95.8751 58.7866 95.8069 58.8559C95.4906 59.1646 95.1035 59.1972 94.8949 58.957C93.1889 58.5407 91.4302 58.3796 89.6761 58.479C87.0072 58.4706 84.6882 58.4165 84.5765 58.3776C82.6448 58.2032 80.6995 58.2418 78.7753 58.4925C78.6398 58.5055 78.5031 58.4891 78.3746 58.4443C78.2461 58.3995 78.1288 58.3275 78.0307 58.2331C76.2794 58.0043 74.5132 57.9069 72.7468 57.9418L64.9653 57.8693C63.8281 57.8972 62.6906 57.837 61.563 57.6892C61.1702 57.6095 60.7615 57.6755 60.4129 57.8748C60.011 58.0699 59.5494 58.0766 59.4153 57.8623C59.3884 57.8061 59.3506 57.7558 59.3042 57.7142C59.2578 57.6727 59.2036 57.6407 59.1448 57.6203C59.086 57.5998 59.0238 57.5911 58.9616 57.5948C58.8994 57.5985 58.8385 57.6145 58.7825 57.6418C58.3926 57.7715 57.9679 57.7437 57.5987 57.5645C57.1125 57.3798 56.5798 57.3556 56.0781 57.4954C55.0273 57.6513 53.9592 57.6464 52.9105 57.4807C51.5536 57.3012 50.4183 57.3245 50.303 57.5356C50.1877 57.7468 50.1989 57.8344 49.8935 57.3929C49.2587 57.0769 48.5436 56.9591 47.8405 57.0546C46.8169 57.1168 46.1525 57.3461 46.3108 57.6107C46.422 57.7413 46.5035 57.8946 46.5497 58.06C46.5958 58.2255 46.6056 58.3991 46.5782 58.5688C46.5508 58.7386 46.487 58.9004 46.3911 59.0431C46.2952 59.1858 46.1696 59.306 46.023 59.3953C45.8278 59.9556 45.8408 59.9182 45.3901 59.1748C44.9394 58.4313 44.4013 57.6993 44.1558 58.284C43.9104 58.8686 43.6683 58.3654 43.2996 57.9856C42.931 57.6058 42.4806 57.7002 42.3653 57.9114C42.25 58.1225 42.2351 58.2849 41.9894 58.0317C40.5893 57.5441 39.0842 57.4389 37.6286 57.727C37.217 57.8172 36.7904 57.8119 36.3816 57.7114C35.1903 57.2963 32.1007 57.0575 32.2684 57.5348C32.4361 58.0121 32.1512 57.871 31.831 57.5919C31.5108 57.3127 29.6718 56.8395 29.6851 57.64C29.6984 58.4405 29.542 58.0509 29.3316 57.9357C29.2706 57.9156 29.2148 57.8821 29.1684 57.8377C29.1219 57.7933 29.0858 57.7391 29.0628 57.679C29.0398 57.6189 29.0305 57.5543 29.0354 57.4901C29.0403 57.4258 29.0594 57.3634 29.0913 57.3074C29.1694 57.0833 29.2084 56.9713 28.7971 56.9536C28.7223 56.9579 28.6494 56.9786 28.5833 57.0142C28.5173 57.0499 28.4599 57.0995 28.415 57.1598C28.3701 57.22 28.339 57.2893 28.3237 57.3629C28.3084 57.4364 28.3093 57.5124 28.3265 57.5855C28.2223 57.8843 28.2093 57.9217 27.8797 57.4298C27.5501 56.938 27.2003 56.9836 26.9863 57.1185C26.8231 57.159 26.6518 57.1511 26.4932 57.0959C26.3346 57.0406 26.1955 56.9403 26.0928 56.8072C25.8509 56.647 25.5734 56.5488 25.2846 56.5212C24.9959 56.4936 24.7046 56.5375 24.4363 56.6489C23.9902 56.799 23.5168 56.8486 23.0498 56.7941C22.5211 56.2747 20.8906 56.0417 20.5949 56.6508C20.2992 57.2598 20.1037 56.9823 19.722 56.6399C19.3404 56.2974 15.6439 55.7634 15.3482 56.3725C15.0525 56.9815 15.0207 56.5935 14.9015 56.2168C14.7776 56.0664 14.615 55.9531 14.4312 55.889C14.2474 55.825 14.0495 55.8128 13.8591 55.8536C13.6688 55.9044 13.4679 55.8969 13.2821 55.8322C13.0963 55.7674 12.9343 55.6484 12.8167 55.4904C12.6584 55.2258 12.4072 55.3477 12.37 55.3348C12.3328 55.3218 11.8918 55.6289 11.5697 55.4748C10.9324 55.4166 10.2907 55.5249 9.70683 55.7891Z" fill="#E4E4D4"/>
<path d="M116.807 59.9318C116.807 59.9318 117.253 60.0874 117.384 60.5518C117.514 61.0161 117.512 61.1411 117.045 60.6851C116.578 60.229 116.755 60.0812 116.807 59.9318Z" fill="#E4E4D4"/>
<path d="M110.557 60.8539C110.557 60.8539 111.004 61.0096 111.147 61.4366C111.291 61.8635 111.263 62.0633 110.809 61.5699C110.354 61.0765 110.369 60.9141 110.557 60.8539Z" fill="#E4E4D4"/>
<path d="M108.099 60.9607C108.949 60.7963 108.936 60.8336 108.021 61.1848C107.105 61.536 106.742 61.619 106.934 61.3087C107.125 60.9985 107.622 61.1298 108.099 60.9607Z" fill="#E4E4D4"/>
<path d="M105.99 60.1839C106.325 60.3007 106.474 60.3526 106.195 60.6742C105.915 60.9959 105.78 60.9066 105.668 60.8677C105.558 60.7123 105.492 60.5301 105.476 60.3401C105.48 60.09 105.705 60.0428 105.99 60.1839Z" fill="#E4E4D4"/>
<path d="M26.6706 59.1029C26.9312 59.1937 27.015 59.4323 26.8866 59.6808C26.8509 59.7589 26.7928 59.8247 26.7199 59.8698C26.647 59.915 26.5624 59.9375 26.4768 59.9346C26.3912 59.9316 26.3084 59.9034 26.2389 59.8533C26.1694 59.8032 26.1163 59.7337 26.0863 59.6533C26.0563 59.573 26.0506 59.4854 26.0701 59.4018C26.0896 59.3181 26.1333 59.2421 26.1958 59.1832C26.2583 59.1243 26.3367 59.0853 26.4212 59.071C26.5057 59.0567 26.5925 59.0678 26.6706 59.1029Z" fill="#E4E4D4"/>
</g>
<defs>
<clipPath id="clip0_5_284">
<rect width="177.758" height="62.0619" fill="white" transform="translate(167.86 117.095) rotate(-160.79)"/>
</clipPath>
</defs>
</svg>
