<svg width="45" height="45" viewBox="0 0 45 45" fill="none" xmlns="http://www.w3.org/2000/svg">
<path d="M34.4175 8.03842C33.8932 8.03591 33.38 8.18925 32.943 8.47898C32.506 8.7687 32.1649 9.18175 31.9631 9.66568C31.7613 10.1496 31.7078 10.6826 31.8095 11.197C31.9112 11.7113 32.1634 12.1839 32.5341 12.5546C32.9049 12.9254 33.3775 13.1776 33.8918 13.2793C34.4062 13.381 34.9392 13.3275 35.4231 13.1257C35.907 12.9239 36.3201 12.5828 36.6098 12.1458C36.8995 11.7088 37.0529 11.1956 37.0504 10.6713C37.047 9.97402 36.7686 9.30629 36.2755 8.81326C35.7825 8.32023 35.1148 8.04177 34.4175 8.03842Z" fill="#FAF8EB"/>
<path d="M22.6906 11.4471C20.4995 11.4471 18.3576 12.0969 16.5358 13.3142C14.714 14.5315 13.2941 16.2617 12.4556 18.286C11.6171 20.3103 11.3977 22.5377 11.8252 24.6867C12.2526 26.8357 13.3077 28.8096 14.8571 30.359C16.4064 31.9083 18.3804 32.9634 20.5293 33.3909C22.6783 33.8183 24.9058 33.5989 26.9301 32.7604C28.9544 31.922 30.6846 30.502 31.9019 28.6802C33.1192 26.8584 33.7689 24.7165 33.7689 22.5254C33.7622 19.5894 32.5928 16.7755 30.5167 14.6993C28.4406 12.6232 25.6267 11.4539 22.6906 11.4471ZM22.6906 29.6227C21.2869 29.6227 19.9147 29.2064 18.7476 28.4266C17.5805 27.6467 16.6708 26.5383 16.1336 25.2414C15.5964 23.9446 15.4559 22.5176 15.7297 21.1408C16.0036 19.7641 16.6795 18.4995 17.6721 17.5069C18.6647 16.5144 19.9293 15.8384 21.306 15.5646C22.6827 15.2907 24.1097 15.4313 25.4066 15.9685C26.7034 16.5056 27.8119 17.4153 28.5917 18.5824C29.3716 19.7496 29.7878 21.1217 29.7878 22.5254C29.7778 24.4023 29.026 26.199 27.6964 27.5238C26.3669 28.8486 24.5675 29.5939 22.6906 29.5972V29.6227Z" fill="#FAF8EB"/>
<path d="M31.4796 45H13.5203C9.93556 44.9966 6.49857 43.5711 3.96374 41.0363C1.42891 38.5014 0.00336758 35.0644 0 31.4796L0 13.5203C0.00336758 9.93556 1.42891 6.49857 3.96374 3.96374C6.49857 1.42891 9.93556 0.00336758 13.5203 0H31.4796C35.0644 0.00336758 38.5014 1.42891 41.0363 3.96374C43.5711 6.49857 44.9966 9.93556 45 13.5203V31.4796C44.9966 35.0644 43.5711 38.5014 41.0363 41.0363C38.5014 43.5711 35.0644 44.9966 31.4796 45ZM13.5203 4.23544C11.0578 4.23544 8.69619 5.21367 6.95493 6.95493C5.21367 8.69619 4.23544 11.0578 4.23544 13.5203V31.4796C4.23544 33.9422 5.21367 36.3038 6.95493 38.0451C8.69619 39.7863 11.0578 40.7646 13.5203 40.7646H31.4796C33.9422 40.7646 36.3038 39.7863 38.0451 38.0451C39.7863 36.3038 40.7646 33.9422 40.7646 31.4796V13.5203C40.7646 12.301 40.5244 11.0937 40.0578 9.96717C39.5912 8.84067 38.9072 7.81711 38.0451 6.95493C37.1829 6.09275 36.1593 5.40883 35.0328 4.94221C33.9063 4.4756 32.699 4.23544 31.4796 4.23544H13.5203Z" fill="#FAF8EB"/>
</svg>
