<svg width="124" height="93" viewBox="0 0 124 93" fill="none" xmlns="http://www.w3.org/2000/svg">
<path d="M67.6276 42.9958L99.7492 59.1362L69.6775 39.4241L99.7492 19.7121L67.6276 35.8524L65.5583 0L63.4891 35.8524L31.3674 19.7121L61.4198 39.4241L31.3674 59.1169L63.4891 42.9958L65.5583 78.8289L67.6276 42.9958Z" fill="#FAF8EB"/>
<path d="M106.769 70.4113L124 59.1169L105.59 68.3648L104.41 47.8225L103.23 68.3648L84.8198 59.1169L102.031 70.4113L84.8198 81.7056L103.23 72.4578L104.41 93L105.59 72.4578L124 81.7056L106.769 70.4113Z" fill="#FAF8EB"/>
<path d="M21.9495 56.2595L39.1803 44.9651L20.7698 54.213L19.5901 33.6708L18.4105 54.213L0 44.9651L17.2308 56.2595L0 67.5346L18.4105 58.306L19.5901 78.829L20.7698 58.306L39.1803 67.5346L21.9495 56.2595Z" fill="#FAF8EB"/>
</svg>
