<svg width="92" height="68" viewBox="0 0 92 68" fill="none" xmlns="http://www.w3.org/2000/svg">
<g clip-path="url(#clip0_5_254)">
<path d="M32.9293 2.15656L29.5504 31.6851L0 35.0783L29.5504 38.4564L32.9293 68L36.3233 38.4564L65.8737 35.0783L36.3233 31.6851L32.9293 2.15656Z" fill="#FAF8EB"/>
<path d="M85.4383 24.9137C87.6397 24.8204 89.8349 24.614 92.0151 24.2954C89.8279 23.9787 87.6406 23.7977 85.4534 23.6922L69.7806 22.1841L67.699 0L65.6324 22.2293L49.9748 23.7374C47.7724 23.843 45.5852 24.024 43.3979 24.3407C45.5782 24.6594 47.7733 24.8658 49.9748 24.959L65.6324 26.4671L67.699 48.6964L69.7655 26.4671L85.4383 24.9137Z" fill="#FAF8EB"/>
<path d="M17.9203 58.1823C20.9777 58.1823 23.4563 55.7044 23.4563 52.6476C23.4563 49.5909 20.9777 47.1129 17.9203 47.1129C14.8628 47.1129 12.3843 49.5909 12.3843 52.6476C12.3843 55.7044 14.8628 58.1823 17.9203 58.1823Z" fill="#FAF8EB"/>
<path d="M49.4015 14.8245C50.497 14.8245 51.568 14.4996 52.4787 13.8907C53.3894 13.2819 54.0989 12.4166 54.5175 11.4044C54.9361 10.3922 55.0448 9.27855 54.83 8.20451C54.6151 7.13047 54.0864 6.14431 53.3107 5.37087C52.5349 4.59743 51.5471 4.0715 50.4722 3.85964C49.3974 3.64779 48.2838 3.75955 47.2725 4.18078C46.2612 4.602 45.3976 5.31374 44.7911 6.2259C44.1847 7.13806 43.8625 8.20962 43.8655 9.30492C43.8695 10.7702 44.4545 12.1741 45.4923 13.2088C46.53 14.2435 47.9359 14.8246 49.4015 14.8245Z" fill="#FAF8EB"/>
<path d="M49.4015 45.0015C48.6879 45.0015 47.9902 45.2133 47.397 45.61C46.8039 46.0068 46.3418 46.5706 46.0694 47.2301C45.7969 47.8895 45.7264 48.615 45.8668 49.3146C46.0071 50.0142 46.352 50.6564 46.8577 51.1599C47.3634 51.6633 48.0072 52.0054 48.7075 52.1428C49.4078 52.2802 50.1332 52.2066 50.7917 51.9315C51.4502 51.6564 52.0122 51.1921 52.4065 50.5974C52.8008 50.0026 53.0097 49.3043 53.0067 48.5908C53.0027 47.6375 52.6211 46.7246 51.9455 46.0519C51.2698 45.3792 50.3551 45.0015 49.4015 45.0015Z" fill="#FAF8EB"/>
</g>
<defs>
<clipPath id="clip0_5_254">
<rect width="92" height="68" fill="white"/>
</clipPath>
</defs>
</svg>
